<mxfile host="app.diagrams.net" modified="2024-04-20T18:32:15.589Z" agent="Mozilla/5.0 (Windows NT 10.0; Win64; x64) AppleWebKit/537.36 (KHTML, like Gecko) Chrome/121.0.0.0 Safari/537.36 OPR/107.0.0.0" etag="AGeZW1wzjp6HNwEDoZSe" version="24.2.7" type="device">
  <diagram name="Page-1" id="nsG5ciO5sCRIo6y5Y7qh">
    <mxGraphModel dx="2243" dy="789" grid="1" gridSize="10" guides="1" tooltips="1" connect="1" arrows="1" fold="1" page="1" pageScale="1" pageWidth="850" pageHeight="1100" math="0" shadow="0">
      <root>
        <mxCell id="0" />
        <mxCell id="1" parent="0" />
        <mxCell id="Elsnr2cujcsRJSs0heVZ-21" value="Main" style="swimlane;fontStyle=1;align=center;verticalAlign=top;childLayout=stackLayout;horizontal=1;startSize=26;horizontalStack=0;resizeParent=1;resizeParentMax=0;resizeLast=0;collapsible=1;marginBottom=0;whiteSpace=wrap;html=1;" parent="1" vertex="1">
          <mxGeometry x="340" y="40" width="220" height="190" as="geometry" />
        </mxCell>
        <mxCell id="Elsnr2cujcsRJSs0heVZ-22" value="&lt;u&gt;- stage : Stage&lt;/u&gt;" style="text;strokeColor=none;fillColor=none;align=left;verticalAlign=top;spacingLeft=4;spacingRight=4;overflow=hidden;rotatable=0;points=[[0,0.5],[1,0.5]];portConstraint=eastwest;whiteSpace=wrap;html=1;" parent="Elsnr2cujcsRJSs0heVZ-21" vertex="1">
          <mxGeometry y="26" width="220" height="26" as="geometry" />
        </mxCell>
        <mxCell id="Elsnr2cujcsRJSs0heVZ-23" value="" style="line;strokeWidth=1;fillColor=none;align=left;verticalAlign=middle;spacingTop=-1;spacingLeft=3;spacingRight=3;rotatable=0;labelPosition=right;points=[];portConstraint=eastwest;strokeColor=inherit;" parent="Elsnr2cujcsRJSs0heVZ-21" vertex="1">
          <mxGeometry y="52" width="220" height="8" as="geometry" />
        </mxCell>
        <mxCell id="Elsnr2cujcsRJSs0heVZ-24" value="+setScene(sceneName : String)&lt;br&gt;&lt;br&gt;+main( args: String[])&lt;br&gt;&lt;div&gt;&lt;br/&gt;&lt;/div&gt;" style="text;strokeColor=none;fillColor=none;align=left;verticalAlign=top;spacingLeft=4;spacingRight=4;overflow=hidden;rotatable=0;points=[[0,0.5],[1,0.5]];portConstraint=eastwest;whiteSpace=wrap;html=1;" parent="Elsnr2cujcsRJSs0heVZ-21" vertex="1">
          <mxGeometry y="60" width="220" height="130" as="geometry" />
        </mxCell>
        <mxCell id="Elsnr2cujcsRJSs0heVZ-37" style="edgeStyle=orthogonalEdgeStyle;rounded=0;orthogonalLoop=1;jettySize=auto;html=1;dashed=1;endArrow=openThin;endFill=0;" parent="1" source="Elsnr2cujcsRJSs0heVZ-25" target="Elsnr2cujcsRJSs0heVZ-21" edge="1">
          <mxGeometry relative="1" as="geometry" />
        </mxCell>
        <mxCell id="Elsnr2cujcsRJSs0heVZ-25" value="AsteController" style="swimlane;fontStyle=1;align=center;verticalAlign=top;childLayout=stackLayout;horizontal=1;startSize=26;horizontalStack=0;resizeParent=1;resizeParentMax=0;resizeLast=0;collapsible=1;marginBottom=0;whiteSpace=wrap;html=1;" parent="1" vertex="1">
          <mxGeometry x="280" y="300" width="340" height="270" as="geometry" />
        </mxCell>
        <mxCell id="Elsnr2cujcsRJSs0heVZ-26" value="- avatar : ImageView&lt;div&gt;&lt;br&gt;&lt;/div&gt;" style="text;strokeColor=none;fillColor=none;align=left;verticalAlign=top;spacingLeft=4;spacingRight=4;overflow=hidden;rotatable=0;points=[[0,0.5],[1,0.5]];portConstraint=eastwest;whiteSpace=wrap;html=1;" parent="Elsnr2cujcsRJSs0heVZ-25" vertex="1">
          <mxGeometry y="26" width="340" height="134" as="geometry" />
        </mxCell>
        <mxCell id="Elsnr2cujcsRJSs0heVZ-27" value="" style="line;strokeWidth=1;fillColor=none;align=left;verticalAlign=middle;spacingTop=-1;spacingLeft=3;spacingRight=3;rotatable=0;labelPosition=right;points=[];portConstraint=eastwest;strokeColor=inherit;" parent="Elsnr2cujcsRJSs0heVZ-25" vertex="1">
          <mxGeometry y="160" width="340" height="8" as="geometry" />
        </mxCell>
        <mxCell id="Elsnr2cujcsRJSs0heVZ-28" value="+ participate()&lt;div&gt;+ profile()&lt;/div&gt;&lt;div&gt;+ logout()&lt;/div&gt;" style="text;strokeColor=none;fillColor=none;align=left;verticalAlign=top;spacingLeft=4;spacingRight=4;overflow=hidden;rotatable=0;points=[[0,0.5],[1,0.5]];portConstraint=eastwest;whiteSpace=wrap;html=1;" parent="Elsnr2cujcsRJSs0heVZ-25" vertex="1">
          <mxGeometry y="168" width="340" height="102" as="geometry" />
        </mxCell>
        <mxCell id="Elsnr2cujcsRJSs0heVZ-38" style="edgeStyle=orthogonalEdgeStyle;rounded=0;orthogonalLoop=1;jettySize=auto;html=1;dashed=1;endArrow=openThin;endFill=0;" parent="1" source="Elsnr2cujcsRJSs0heVZ-29" target="Elsnr2cujcsRJSs0heVZ-24" edge="1">
          <mxGeometry relative="1" as="geometry" />
        </mxCell>
        <mxCell id="Elsnr2cujcsRJSs0heVZ-29" value="LoginController" style="swimlane;fontStyle=1;align=center;verticalAlign=top;childLayout=stackLayout;horizontal=1;startSize=26;horizontalStack=0;resizeParent=1;resizeParentMax=0;resizeLast=0;collapsible=1;marginBottom=0;whiteSpace=wrap;html=1;" parent="1" vertex="1">
          <mxGeometry x="-440" y="300" width="310" height="270" as="geometry" />
        </mxCell>
        <mxCell id="Elsnr2cujcsRJSs0heVZ-30" value="- enterB : Button&lt;div&gt;- registerB : Button&lt;/div&gt;&lt;div&gt;- userField : Textfield&lt;/div&gt;&lt;div&gt;- passField : Password Field&lt;/div&gt;&lt;div&gt;- title : Text&lt;/div&gt;&lt;div&gt;- userText : Text&lt;/div&gt;&lt;div&gt;- passText: Text&lt;/div&gt;&lt;div&gt;&lt;br&gt;&lt;/div&gt;" style="text;strokeColor=none;fillColor=none;align=left;verticalAlign=top;spacingLeft=4;spacingRight=4;overflow=hidden;rotatable=0;points=[[0,0.5],[1,0.5]];portConstraint=eastwest;whiteSpace=wrap;html=1;" parent="Elsnr2cujcsRJSs0heVZ-29" vertex="1">
          <mxGeometry y="26" width="310" height="144" as="geometry" />
        </mxCell>
        <mxCell id="Elsnr2cujcsRJSs0heVZ-31" value="" style="line;strokeWidth=1;fillColor=none;align=left;verticalAlign=middle;spacingTop=-1;spacingLeft=3;spacingRight=3;rotatable=0;labelPosition=right;points=[];portConstraint=eastwest;strokeColor=inherit;" parent="Elsnr2cujcsRJSs0heVZ-29" vertex="1">
          <mxGeometry y="170" width="310" height="8" as="geometry" />
        </mxCell>
        <mxCell id="Elsnr2cujcsRJSs0heVZ-32" value="+login()&lt;div&gt;+Register()&lt;br&gt;+Initialize()&lt;/div&gt;" style="text;strokeColor=none;fillColor=none;align=left;verticalAlign=top;spacingLeft=4;spacingRight=4;overflow=hidden;rotatable=0;points=[[0,0.5],[1,0.5]];portConstraint=eastwest;whiteSpace=wrap;html=1;" parent="Elsnr2cujcsRJSs0heVZ-29" vertex="1">
          <mxGeometry y="178" width="310" height="92" as="geometry" />
        </mxCell>
        <mxCell id="Elsnr2cujcsRJSs0heVZ-39" style="edgeStyle=orthogonalEdgeStyle;rounded=0;orthogonalLoop=1;jettySize=auto;html=1;dashed=1;endArrow=openThin;endFill=0;" parent="1" source="Elsnr2cujcsRJSs0heVZ-33" target="Elsnr2cujcsRJSs0heVZ-24" edge="1">
          <mxGeometry relative="1" as="geometry" />
        </mxCell>
        <mxCell id="Elsnr2cujcsRJSs0heVZ-33" value="RegisterController" style="swimlane;fontStyle=1;align=center;verticalAlign=top;childLayout=stackLayout;horizontal=1;startSize=26;horizontalStack=0;resizeParent=1;resizeParentMax=0;resizeLast=0;collapsible=1;marginBottom=0;whiteSpace=wrap;html=1;" parent="1" vertex="1">
          <mxGeometry x="1430" y="300" width="380" height="430" as="geometry" />
        </mxCell>
        <mxCell id="Elsnr2cujcsRJSs0heVZ-34" value="- registerB : Button&lt;br&gt;&lt;br&gt;- backB : Button&lt;br&gt;&lt;br&gt;- nomeField : TextField&lt;br&gt;&lt;br&gt;- cognField : TextField&lt;br&gt;&lt;br&gt;- dateField : DatePicker&lt;br&gt;&lt;br&gt;- cityField : TextField&lt;br&gt;&lt;br&gt;- capField : TextField&lt;br&gt;&lt;br&gt;- emailField : TextField&lt;br&gt;&lt;br&gt;- passwordField : PasswordField&lt;div&gt;&lt;br&gt;&lt;/div&gt;&lt;div&gt;-ibanField : TextField&lt;/div&gt;" style="text;strokeColor=none;fillColor=none;align=left;verticalAlign=top;spacingLeft=4;spacingRight=4;overflow=hidden;rotatable=0;points=[[0,0.5],[1,0.5]];portConstraint=eastwest;whiteSpace=wrap;html=1;" parent="Elsnr2cujcsRJSs0heVZ-33" vertex="1">
          <mxGeometry y="26" width="380" height="294" as="geometry" />
        </mxCell>
        <mxCell id="Elsnr2cujcsRJSs0heVZ-35" value="" style="line;strokeWidth=1;fillColor=none;align=left;verticalAlign=middle;spacingTop=-1;spacingLeft=3;spacingRight=3;rotatable=0;labelPosition=right;points=[];portConstraint=eastwest;strokeColor=inherit;" parent="Elsnr2cujcsRJSs0heVZ-33" vertex="1">
          <mxGeometry y="320" width="380" height="18" as="geometry" />
        </mxCell>
        <mxCell id="Elsnr2cujcsRJSs0heVZ-36" value="+registration()&lt;br&gt;+initialize()" style="text;strokeColor=none;fillColor=none;align=left;verticalAlign=top;spacingLeft=4;spacingRight=4;overflow=hidden;rotatable=0;points=[[0,0.5],[1,0.5]];portConstraint=eastwest;whiteSpace=wrap;html=1;" parent="Elsnr2cujcsRJSs0heVZ-33" vertex="1">
          <mxGeometry y="338" width="380" height="92" as="geometry" />
        </mxCell>
        <mxCell id="rrVKiz1__7NEsThehWCo-32" style="edgeStyle=none;rounded=0;orthogonalLoop=1;jettySize=auto;html=1;dashed=1;strokeColor=default;align=center;verticalAlign=middle;fontFamily=Helvetica;fontSize=11;fontColor=default;labelBackgroundColor=default;endArrow=open;startArrow=open;startFill=0;endFill=0;" edge="1" parent="1" source="rrVKiz1__7NEsThehWCo-11" target="Elsnr2cujcsRJSs0heVZ-25">
          <mxGeometry relative="1" as="geometry" />
        </mxCell>
        <mxCell id="rrVKiz1__7NEsThehWCo-11" value="ProfileController" style="swimlane;fontStyle=1;align=center;verticalAlign=top;childLayout=stackLayout;horizontal=1;startSize=26;horizontalStack=0;resizeParent=1;resizeParentMax=0;resizeLast=0;collapsible=1;marginBottom=0;whiteSpace=wrap;html=1;" vertex="1" parent="1">
          <mxGeometry x="-30" y="330" width="160" height="210" as="geometry" />
        </mxCell>
        <mxCell id="rrVKiz1__7NEsThehWCo-12" value="-nameT : Text&lt;div&gt;-cognT : Text&lt;/div&gt;&lt;div&gt;-emailT : Text&lt;/div&gt;&lt;div&gt;-profilP : ImageView&lt;/div&gt;" style="text;strokeColor=none;fillColor=none;align=left;verticalAlign=top;spacingLeft=4;spacingRight=4;overflow=hidden;rotatable=0;points=[[0,0.5],[1,0.5]];portConstraint=eastwest;whiteSpace=wrap;html=1;" vertex="1" parent="rrVKiz1__7NEsThehWCo-11">
          <mxGeometry y="26" width="160" height="74" as="geometry" />
        </mxCell>
        <mxCell id="rrVKiz1__7NEsThehWCo-13" value="" style="line;strokeWidth=1;fillColor=none;align=left;verticalAlign=middle;spacingTop=-1;spacingLeft=3;spacingRight=3;rotatable=0;labelPosition=right;points=[];portConstraint=eastwest;strokeColor=inherit;" vertex="1" parent="rrVKiz1__7NEsThehWCo-11">
          <mxGeometry y="100" width="160" height="8" as="geometry" />
        </mxCell>
        <mxCell id="rrVKiz1__7NEsThehWCo-14" value="&lt;div&gt;+ modify()&lt;/div&gt;+ initialize()&lt;div&gt;+ logout()&lt;/div&gt;" style="text;strokeColor=none;fillColor=none;align=left;verticalAlign=top;spacingLeft=4;spacingRight=4;overflow=hidden;rotatable=0;points=[[0,0.5],[1,0.5]];portConstraint=eastwest;whiteSpace=wrap;html=1;" vertex="1" parent="rrVKiz1__7NEsThehWCo-11">
          <mxGeometry y="108" width="160" height="102" as="geometry" />
        </mxCell>
        <mxCell id="rrVKiz1__7NEsThehWCo-37" style="edgeStyle=none;rounded=0;orthogonalLoop=1;jettySize=auto;html=1;dashed=1;strokeColor=default;align=center;verticalAlign=middle;fontFamily=Helvetica;fontSize=11;fontColor=default;labelBackgroundColor=default;endArrow=open;endFill=0;startArrow=open;startFill=0;" edge="1" parent="1" source="rrVKiz1__7NEsThehWCo-16" target="Elsnr2cujcsRJSs0heVZ-25">
          <mxGeometry relative="1" as="geometry" />
        </mxCell>
        <mxCell id="rrVKiz1__7NEsThehWCo-16" value="LottiController" style="swimlane;fontStyle=1;align=center;verticalAlign=top;childLayout=stackLayout;horizontal=1;startSize=26;horizontalStack=0;resizeParent=1;resizeParentMax=0;resizeLast=0;collapsible=1;marginBottom=0;whiteSpace=wrap;html=1;" vertex="1" parent="1">
          <mxGeometry x="740" y="710" width="200" height="86" as="geometry" />
        </mxCell>
        <mxCell id="rrVKiz1__7NEsThehWCo-17" value="+ field: type" style="text;strokeColor=none;fillColor=none;align=left;verticalAlign=top;spacingLeft=4;spacingRight=4;overflow=hidden;rotatable=0;points=[[0,0.5],[1,0.5]];portConstraint=eastwest;whiteSpace=wrap;html=1;" vertex="1" parent="rrVKiz1__7NEsThehWCo-16">
          <mxGeometry y="26" width="200" height="26" as="geometry" />
        </mxCell>
        <mxCell id="rrVKiz1__7NEsThehWCo-18" value="" style="line;strokeWidth=1;fillColor=none;align=left;verticalAlign=middle;spacingTop=-1;spacingLeft=3;spacingRight=3;rotatable=0;labelPosition=right;points=[];portConstraint=eastwest;strokeColor=inherit;" vertex="1" parent="rrVKiz1__7NEsThehWCo-16">
          <mxGeometry y="52" width="200" height="8" as="geometry" />
        </mxCell>
        <mxCell id="rrVKiz1__7NEsThehWCo-19" value="+ method(type): type" style="text;strokeColor=none;fillColor=none;align=left;verticalAlign=top;spacingLeft=4;spacingRight=4;overflow=hidden;rotatable=0;points=[[0,0.5],[1,0.5]];portConstraint=eastwest;whiteSpace=wrap;html=1;" vertex="1" parent="rrVKiz1__7NEsThehWCo-16">
          <mxGeometry y="60" width="200" height="26" as="geometry" />
        </mxCell>
        <mxCell id="rrVKiz1__7NEsThehWCo-34" style="edgeStyle=none;rounded=0;orthogonalLoop=1;jettySize=auto;html=1;dashed=1;strokeColor=default;align=center;verticalAlign=middle;fontFamily=Helvetica;fontSize=11;fontColor=default;labelBackgroundColor=default;endArrow=open;endFill=0;startArrow=open;startFill=0;" edge="1" parent="1" source="rrVKiz1__7NEsThehWCo-20" target="Elsnr2cujcsRJSs0heVZ-25">
          <mxGeometry relative="1" as="geometry" />
        </mxCell>
        <mxCell id="rrVKiz1__7NEsThehWCo-20" value="ArticoloController" style="swimlane;fontStyle=1;align=center;verticalAlign=top;childLayout=stackLayout;horizontal=1;startSize=26;horizontalStack=0;resizeParent=1;resizeParentMax=0;resizeLast=0;collapsible=1;marginBottom=0;whiteSpace=wrap;html=1;" vertex="1" parent="1">
          <mxGeometry x="-50" y="710" width="200" height="86" as="geometry" />
        </mxCell>
        <mxCell id="rrVKiz1__7NEsThehWCo-21" value="+ field: type" style="text;strokeColor=none;fillColor=none;align=left;verticalAlign=top;spacingLeft=4;spacingRight=4;overflow=hidden;rotatable=0;points=[[0,0.5],[1,0.5]];portConstraint=eastwest;whiteSpace=wrap;html=1;" vertex="1" parent="rrVKiz1__7NEsThehWCo-20">
          <mxGeometry y="26" width="200" height="26" as="geometry" />
        </mxCell>
        <mxCell id="rrVKiz1__7NEsThehWCo-22" value="" style="line;strokeWidth=1;fillColor=none;align=left;verticalAlign=middle;spacingTop=-1;spacingLeft=3;spacingRight=3;rotatable=0;labelPosition=right;points=[];portConstraint=eastwest;strokeColor=inherit;" vertex="1" parent="rrVKiz1__7NEsThehWCo-20">
          <mxGeometry y="52" width="200" height="8" as="geometry" />
        </mxCell>
        <mxCell id="rrVKiz1__7NEsThehWCo-23" value="+ method(type): type" style="text;strokeColor=none;fillColor=none;align=left;verticalAlign=top;spacingLeft=4;spacingRight=4;overflow=hidden;rotatable=0;points=[[0,0.5],[1,0.5]];portConstraint=eastwest;whiteSpace=wrap;html=1;" vertex="1" parent="rrVKiz1__7NEsThehWCo-20">
          <mxGeometry y="60" width="200" height="26" as="geometry" />
        </mxCell>
        <mxCell id="rrVKiz1__7NEsThehWCo-38" style="edgeStyle=none;rounded=0;orthogonalLoop=1;jettySize=auto;html=1;dashed=1;strokeColor=default;align=center;verticalAlign=middle;fontFamily=Helvetica;fontSize=11;fontColor=default;labelBackgroundColor=default;endArrow=open;endFill=0;startArrow=open;startFill=0;" edge="1" parent="1" source="rrVKiz1__7NEsThehWCo-17" target="rrVKiz1__7NEsThehWCo-20">
          <mxGeometry relative="1" as="geometry" />
        </mxCell>
        <mxCell id="rrVKiz1__7NEsThehWCo-39" style="edgeStyle=none;rounded=0;orthogonalLoop=1;jettySize=auto;html=1;dashed=1;strokeColor=default;align=center;verticalAlign=middle;fontFamily=Helvetica;fontSize=11;fontColor=default;labelBackgroundColor=default;endArrow=open;endFill=0;startArrow=open;startFill=0;" edge="1" parent="1" source="rrVKiz1__7NEsThehWCo-20" target="rrVKiz1__7NEsThehWCo-11">
          <mxGeometry relative="1" as="geometry" />
        </mxCell>
        <mxCell id="rrVKiz1__7NEsThehWCo-46" style="edgeStyle=none;rounded=0;orthogonalLoop=1;jettySize=auto;html=1;dashed=1;strokeColor=default;align=center;verticalAlign=middle;fontFamily=Helvetica;fontSize=11;fontColor=default;labelBackgroundColor=default;endArrow=open;startArrow=open;startFill=0;endFill=0;" edge="1" parent="1" source="rrVKiz1__7NEsThehWCo-42" target="rrVKiz1__7NEsThehWCo-16">
          <mxGeometry relative="1" as="geometry" />
        </mxCell>
        <mxCell id="rrVKiz1__7NEsThehWCo-42" value="AstaController" style="swimlane;fontStyle=1;align=center;verticalAlign=top;childLayout=stackLayout;horizontal=1;startSize=26;horizontalStack=0;resizeParent=1;resizeParentMax=0;resizeLast=0;collapsible=1;marginBottom=0;whiteSpace=wrap;html=1;fontFamily=Helvetica;fontSize=11;fontColor=default;labelBackgroundColor=default;" vertex="1" parent="1">
          <mxGeometry x="760" y="392" width="160" height="86" as="geometry" />
        </mxCell>
        <mxCell id="rrVKiz1__7NEsThehWCo-43" value="+ field: type" style="text;strokeColor=none;fillColor=none;align=left;verticalAlign=top;spacingLeft=4;spacingRight=4;overflow=hidden;rotatable=0;points=[[0,0.5],[1,0.5]];portConstraint=eastwest;whiteSpace=wrap;html=1;fontFamily=Helvetica;fontSize=11;fontColor=default;labelBackgroundColor=default;" vertex="1" parent="rrVKiz1__7NEsThehWCo-42">
          <mxGeometry y="26" width="160" height="26" as="geometry" />
        </mxCell>
        <mxCell id="rrVKiz1__7NEsThehWCo-44" value="" style="line;strokeWidth=1;fillColor=none;align=left;verticalAlign=middle;spacingTop=-1;spacingLeft=3;spacingRight=3;rotatable=0;labelPosition=right;points=[];portConstraint=eastwest;strokeColor=inherit;fontFamily=Helvetica;fontSize=11;fontColor=default;labelBackgroundColor=default;" vertex="1" parent="rrVKiz1__7NEsThehWCo-42">
          <mxGeometry y="52" width="160" height="8" as="geometry" />
        </mxCell>
        <mxCell id="rrVKiz1__7NEsThehWCo-45" value="+ method(type): type" style="text;strokeColor=none;fillColor=none;align=left;verticalAlign=top;spacingLeft=4;spacingRight=4;overflow=hidden;rotatable=0;points=[[0,0.5],[1,0.5]];portConstraint=eastwest;whiteSpace=wrap;html=1;fontFamily=Helvetica;fontSize=11;fontColor=default;labelBackgroundColor=default;" vertex="1" parent="rrVKiz1__7NEsThehWCo-42">
          <mxGeometry y="60" width="160" height="26" as="geometry" />
        </mxCell>
        <mxCell id="rrVKiz1__7NEsThehWCo-41" style="edgeStyle=none;rounded=0;orthogonalLoop=1;jettySize=auto;html=1;dashed=1;strokeColor=default;align=center;verticalAlign=middle;fontFamily=Helvetica;fontSize=11;fontColor=default;labelBackgroundColor=default;endArrow=open;startArrow=open;startFill=0;endSize=7;endFill=0;" edge="1" parent="1" source="Elsnr2cujcsRJSs0heVZ-25" target="rrVKiz1__7NEsThehWCo-42">
          <mxGeometry relative="1" as="geometry">
            <mxPoint x="780" y="440" as="targetPoint" />
          </mxGeometry>
        </mxCell>
        <mxCell id="rrVKiz1__7NEsThehWCo-59" style="edgeStyle=none;rounded=0;orthogonalLoop=1;jettySize=auto;html=1;dashed=1;strokeColor=default;align=center;verticalAlign=middle;fontFamily=Helvetica;fontSize=11;fontColor=default;labelBackgroundColor=default;startArrow=open;startFill=0;endArrow=open;endFill=0;" edge="1" parent="1" source="rrVKiz1__7NEsThehWCo-48" target="rrVKiz1__7NEsThehWCo-16">
          <mxGeometry relative="1" as="geometry" />
        </mxCell>
        <mxCell id="rrVKiz1__7NEsThehWCo-48" value="AddLottiController" style="swimlane;fontStyle=1;align=center;verticalAlign=top;childLayout=stackLayout;horizontal=1;startSize=26;horizontalStack=0;resizeParent=1;resizeParentMax=0;resizeLast=0;collapsible=1;marginBottom=0;whiteSpace=wrap;html=1;fontFamily=Helvetica;fontSize=11;fontColor=default;labelBackgroundColor=default;" vertex="1" parent="1">
          <mxGeometry x="760" y="890" width="160" height="86" as="geometry" />
        </mxCell>
        <mxCell id="rrVKiz1__7NEsThehWCo-49" value="+ field: type" style="text;strokeColor=none;fillColor=none;align=left;verticalAlign=top;spacingLeft=4;spacingRight=4;overflow=hidden;rotatable=0;points=[[0,0.5],[1,0.5]];portConstraint=eastwest;whiteSpace=wrap;html=1;fontFamily=Helvetica;fontSize=11;fontColor=default;labelBackgroundColor=default;" vertex="1" parent="rrVKiz1__7NEsThehWCo-48">
          <mxGeometry y="26" width="160" height="26" as="geometry" />
        </mxCell>
        <mxCell id="rrVKiz1__7NEsThehWCo-50" value="" style="line;strokeWidth=1;fillColor=none;align=left;verticalAlign=middle;spacingTop=-1;spacingLeft=3;spacingRight=3;rotatable=0;labelPosition=right;points=[];portConstraint=eastwest;strokeColor=inherit;fontFamily=Helvetica;fontSize=11;fontColor=default;labelBackgroundColor=default;" vertex="1" parent="rrVKiz1__7NEsThehWCo-48">
          <mxGeometry y="52" width="160" height="8" as="geometry" />
        </mxCell>
        <mxCell id="rrVKiz1__7NEsThehWCo-51" value="+ method(type): type" style="text;strokeColor=none;fillColor=none;align=left;verticalAlign=top;spacingLeft=4;spacingRight=4;overflow=hidden;rotatable=0;points=[[0,0.5],[1,0.5]];portConstraint=eastwest;whiteSpace=wrap;html=1;fontFamily=Helvetica;fontSize=11;fontColor=default;labelBackgroundColor=default;" vertex="1" parent="rrVKiz1__7NEsThehWCo-48">
          <mxGeometry y="60" width="160" height="26" as="geometry" />
        </mxCell>
        <mxCell id="rrVKiz1__7NEsThehWCo-58" style="edgeStyle=none;rounded=0;orthogonalLoop=1;jettySize=auto;html=1;dashed=1;strokeColor=default;align=center;verticalAlign=middle;fontFamily=Helvetica;fontSize=11;fontColor=default;labelBackgroundColor=default;startArrow=open;startFill=0;endArrow=open;endFill=0;" edge="1" parent="1" source="rrVKiz1__7NEsThehWCo-53" target="rrVKiz1__7NEsThehWCo-42">
          <mxGeometry relative="1" as="geometry" />
        </mxCell>
        <mxCell id="rrVKiz1__7NEsThehWCo-53" value="AddArticoloController" style="swimlane;fontStyle=1;align=center;verticalAlign=top;childLayout=stackLayout;horizontal=1;startSize=26;horizontalStack=0;resizeParent=1;resizeParentMax=0;resizeLast=0;collapsible=1;marginBottom=0;whiteSpace=wrap;html=1;fontFamily=Helvetica;fontSize=11;fontColor=default;labelBackgroundColor=default;" vertex="1" parent="1">
          <mxGeometry x="1010" y="392" width="160" height="86" as="geometry" />
        </mxCell>
        <mxCell id="rrVKiz1__7NEsThehWCo-54" value="+ field: type" style="text;strokeColor=none;fillColor=none;align=left;verticalAlign=top;spacingLeft=4;spacingRight=4;overflow=hidden;rotatable=0;points=[[0,0.5],[1,0.5]];portConstraint=eastwest;whiteSpace=wrap;html=1;fontFamily=Helvetica;fontSize=11;fontColor=default;labelBackgroundColor=default;" vertex="1" parent="rrVKiz1__7NEsThehWCo-53">
          <mxGeometry y="26" width="160" height="26" as="geometry" />
        </mxCell>
        <mxCell id="rrVKiz1__7NEsThehWCo-55" value="" style="line;strokeWidth=1;fillColor=none;align=left;verticalAlign=middle;spacingTop=-1;spacingLeft=3;spacingRight=3;rotatable=0;labelPosition=right;points=[];portConstraint=eastwest;strokeColor=inherit;fontFamily=Helvetica;fontSize=11;fontColor=default;labelBackgroundColor=default;" vertex="1" parent="rrVKiz1__7NEsThehWCo-53">
          <mxGeometry y="52" width="160" height="8" as="geometry" />
        </mxCell>
        <mxCell id="rrVKiz1__7NEsThehWCo-56" value="+ method(type): type" style="text;strokeColor=none;fillColor=none;align=left;verticalAlign=top;spacingLeft=4;spacingRight=4;overflow=hidden;rotatable=0;points=[[0,0.5],[1,0.5]];portConstraint=eastwest;whiteSpace=wrap;html=1;fontFamily=Helvetica;fontSize=11;fontColor=default;labelBackgroundColor=default;" vertex="1" parent="rrVKiz1__7NEsThehWCo-53">
          <mxGeometry y="60" width="160" height="26" as="geometry" />
        </mxCell>
      </root>
    </mxGraphModel>
  </diagram>
</mxfile>
